<svg width="275" height="337" viewBox="0 0 275 337" fill="none" xmlns="http://www.w3.org/2000/svg">
<path d="M220.566 89.5832C224.754 104.182 239.984 112.622 254.583 108.434C269.182 104.246 277.622 89.0157 273.434 74.4168L220.566 89.5832ZM28 262L0.49997 262L0.499967 267.896L2.91704 273.274L28 262ZM28 82L2.14881 72.6211L0.500048 77.1656L0.500046 82L28 82ZM273.534 269.224C277.524 254.569 268.878 239.455 254.224 235.466C239.569 231.476 224.455 240.122 220.466 254.776L273.534 269.224ZM196 28L203.198 1.45867L199.663 0.5L196 0.5L196 28ZM82.5 28L82.5 0.5L78.6436 0.5L74.936 1.56071L82.5 28ZM196 308.5L196 336L199.39 336L202.678 335.177L196 308.5ZM82.5 308.5L78.3291 335.682L80.4024 336L82.5 336L82.5 308.5ZM195 281L167.5 281L167.5 336L195 336L195 281ZM83.5 336L111 336L111 281L83.5 281L83.5 336ZM0.500046 82L0.49997 262L55.5 262L55.5 82L0.500046 82ZM273.434 74.4168C268.093 55.7985 261.25 39.1386 248.816 26.1018C236.007 12.6725 220.141 6.0536 203.198 1.45867L188.802 54.5413C201.531 57.9932 206.217 61.1267 209.016 64.0619C212.19 67.3897 216.012 73.7064 220.566 89.5832L273.434 74.4168ZM196 0.5L82.5 0.5L82.5 55.5L196 55.5L196 0.5ZM74.936 1.56071C57.6602 6.50314 42.0836 13.2941 29.1171 26.1151C16.4722 38.6181 8.72052 54.5074 2.14881 72.6211L53.8513 91.3789C59.4509 75.9445 63.8003 69.1677 67.7879 65.2248C71.4541 61.5997 77.0419 58.1648 90.064 54.4393L74.936 1.56071ZM202.678 335.177C220.395 330.741 236.697 324.697 249.548 312.842C262.802 300.616 269.18 285.216 273.534 269.224L220.466 254.776C217.237 266.636 214.443 270.399 212.256 272.415C209.667 274.804 204.26 278.083 189.322 281.823L202.678 335.177ZM2.91704 273.274C10.5032 290.152 19.0427 305.254 32.0553 316.411C45.7508 328.155 61.4604 333.093 78.3291 335.682L86.6709 281.318C75.1351 279.548 70.7377 277.129 67.8559 274.658C64.2911 271.602 59.7828 265.633 53.0829 250.726L2.91704 273.274ZM195 336H196L196 281H195L195 336ZM82.5 336L83.5 336L83.5 281L82.5 281L82.5 336Z" fill="#4174F7"/>
<path d="M166.5 308.5V281H111.5V308.5H166.5ZM166.5 156.5C166.5 141.312 154.188 129 139 129C123.812 129 111.5 141.312 111.5 156.5H166.5ZM111.5 164.5C111.5 179.688 123.812 192 139 192C154.188 192 166.5 179.688 166.5 164.5H111.5ZM166.5 224.5C166.5 209.312 154.188 197 139 197C123.812 197 111.5 209.312 111.5 224.5H166.5ZM111.5 309V336.5H166.5V309H111.5ZM111.5 253V280.5H166.5V253H111.5ZM111.5 156.5V164.5H166.5V156.5H111.5ZM166.5 309V308.5H111.5V309H166.5ZM111.5 224.5V253H166.5V224.5H111.5Z" fill="#E4E4EE"/>
<line x1="139.5" y1="142.5" x2="139.5" y2="137.5" stroke="#4174F7" stroke-width="5" stroke-linecap="round"/>
</svg>
