<svg width="414" height="298" viewBox="0 0 414 298" fill="none" xmlns="http://www.w3.org/2000/svg">
<path d="M157 278H107" stroke="#4174F7" stroke-width="40" stroke-linecap="round" stroke-linejoin="round"/>
<path d="M290.216 20H385.351C390.128 20 394 24.2782 394 29.5556V268.444C394 273.722 390.128 278 385.351 278H234" stroke="#4174F7" stroke-width="40" stroke-linecap="round" stroke-linejoin="round"/>
<path d="M132 219V269" stroke="#4174F7" stroke-width="40" stroke-linecap="round" stroke-linejoin="round"/>
<path d="M314 228C325.046 228 334 219.046 334 208C334 196.954 325.046 188 314 188C302.954 188 294 196.954 294 208C294 219.046 302.954 228 314 228Z" fill="#4174F7"/>
<path d="M234 40C245.046 40 254 31.0457 254 20C254 8.9543 245.046 0 234 0C222.954 0 214 8.9543 214 20C214 31.0457 222.954 40 234 40Z" fill="#4174F7"/>
<path d="M294 90H334" stroke="#4174F7" stroke-width="40" stroke-linecap="round"/>
<path d="M294 142H334" stroke="#4174F7" stroke-width="40" stroke-linecap="round"/>
<path d="M234 210V90" stroke="#4174F7" stroke-width="40" stroke-linecap="round"/>
<path d="M160 210H24C21.7909 210 20 208.209 20 206L20 146.667L20 24C20 21.7909 21.7909 20 24 20H160" stroke="#4174F7" stroke-width="40" stroke-linecap="round"/>
</svg>
